<svg xmlns="http://www.w3.org/2000/svg" width="277" height="60" fill="none" viewBox="0 0 277 60">
  <path fill="#0C090A" d="M0 6.401h12.601c4.505 0 8.468.855 11.89 2.566 3.42 1.71 6.072 4.124 7.953 7.242 1.882 3.117 2.832 6.728 2.851 10.833-.019 4.106-.969 7.717-2.85 10.834-1.882 3.117-4.534 5.531-7.955 7.242-3.421 1.71-7.384 2.566-11.889 2.566H0V6.4Zm12.601 33.357c2.946 0 5.474-.504 7.584-1.511 2.129-1.008 3.754-2.462 4.875-4.362 1.14-1.9 1.72-4.182 1.74-6.843-.02-2.66-.6-4.941-1.74-6.842-1.121-1.9-2.746-3.355-4.875-4.362-2.11-1.007-4.637-1.511-7.584-1.511H8.44v25.43h4.162Zm39.447 1.312c1.425 0 2.699-.343 3.82-1.027 1.122-.684 1.996-1.644 2.623-2.88.646-1.235.97-2.632.97-4.19 0-1.559-.324-2.956-.97-4.191-.627-1.236-1.501-2.196-2.623-2.88-1.121-.684-2.395-1.026-3.82-1.026-1.426 0-2.7.351-3.82 1.054-1.122.685-1.996 1.645-2.623 2.88-.609 1.216-.913 2.604-.913 4.162 0 1.559.304 2.956.913 4.191.627 1.217 1.501 2.177 2.623 2.88 1.12.684 2.394 1.026 3.82 1.026Zm7.184 6.614v-4.049h-.228c-.912 1.616-2.11 2.832-3.592 3.65-1.463.798-3.174 1.197-5.132 1.197-2.642 0-5.008-.675-7.099-2.024-2.09-1.35-3.725-3.203-4.903-5.56-1.16-2.357-1.74-4.998-1.74-7.926 0-2.927.58-5.569 1.74-7.925 1.178-2.357 2.813-4.21 4.903-5.56 2.091-1.35 4.457-2.024 7.1-2.024 3.934 0 6.832 1.597 8.695 4.79h.256V18.26h8.097v29.423h-8.097Zm9.625-29.423h8.553l7.641 20.242h.342l7.413-20.242h8.496L84.652 60h-8.553l4.904-12.316L68.857 18.26Zm33.973-11.86h8.097v15.852h.228c1.843-3.193 4.751-4.79 8.724-4.79 2.623 0 4.98.675 7.07 2.024 2.091 1.35 3.726 3.203 4.904 5.56 1.178 2.357 1.768 4.998 1.768 7.925 0 2.928-.59 5.57-1.768 7.926-1.178 2.357-2.813 4.21-4.904 5.56-2.09 1.35-4.447 2.024-7.07 2.024-1.958 0-3.678-.4-5.16-1.197-1.483-.818-2.68-2.034-3.593-3.65h-.199v4.049h-8.097V6.4Zm15.281 34.668c1.407 0 2.661-.342 3.764-1.026 1.121-.703 1.995-1.663 2.622-2.88.647-1.235.97-2.632.97-4.19 0-1.559-.323-2.947-.97-4.163-.627-1.235-1.501-2.195-2.622-2.88-1.103-.703-2.357-1.054-3.764-1.054-1.444 0-2.727.342-3.849 1.026-1.121.684-1.995 1.644-2.623 2.88-.627 1.235-.94 2.632-.94 4.19 0 1.559.313 2.956.94 4.191.628 1.236 1.502 2.196 2.623 2.88 1.122.684 2.405 1.026 3.849 1.026Zm18.007-22.808h8.097v4.277h.2c.779-1.578 1.843-2.813 3.193-3.707a7.997 7.997 0 0 1 4.533-1.368c.836 0 1.786.152 2.851.456v7.698a16.752 16.752 0 0 0-3.478-.513c-2.357.019-4.163.808-5.417 2.366-1.236 1.559-1.863 3.801-1.882 6.728v13.486h-8.097V18.26Zm35.341 30.221c-3.136 0-5.92-.665-8.353-1.996-2.414-1.35-4.296-3.202-5.645-5.56-1.35-2.356-2.025-5.008-2.025-7.954 0-2.984.666-5.654 1.996-8.01 1.35-2.358 3.193-4.192 5.531-5.503 2.357-1.33 4.999-1.996 7.926-1.996 2.927 0 5.521.656 7.783 1.967 2.281 1.312 4.049 3.146 5.303 5.503 1.273 2.337 1.91 4.998 1.91 7.983 0 .93-.057 1.824-.171 2.68h-22.095c.342 1.9 1.226 3.42 2.651 4.561 1.426 1.14 3.155 1.71 5.189 1.71 1.502 0 2.785-.322 3.849-.969 1.083-.646 1.91-1.558 2.48-2.737l7.071 2.68c-1.236 2.395-3.003 4.267-5.303 5.617-2.281 1.35-4.98 2.024-8.097 2.024Zm6.158-19.045a5.78 5.78 0 0 0-1.083-2.737c-.589-.817-1.378-1.454-2.366-1.91-.97-.475-2.063-.713-3.279-.713-1.768 0-3.288.485-4.562 1.454-1.273.95-2.128 2.253-2.566 3.906h13.856Zm24.85 11.633c1.425 0 2.699-.343 3.82-1.027 1.121-.684 1.996-1.644 2.623-2.88.646-1.235.969-2.632.969-4.19 0-1.559-.323-2.956-.969-4.191-.627-1.236-1.502-2.196-2.623-2.88-1.121-.684-2.395-1.026-3.82-1.026-1.426 0-2.699.351-3.821 1.054-1.121.685-1.995 1.645-2.623 2.88-.608 1.216-.912 2.604-.912 4.162 0 1.559.304 2.956.912 4.191.628 1.217 1.502 2.177 2.623 2.88 1.122.684 2.395 1.026 3.821 1.026Zm7.184 6.614v-4.049h-.228c-.912 1.616-2.11 2.832-3.592 3.65-1.464.798-3.174 1.197-5.132 1.197-2.642 0-5.008-.675-7.099-2.024-2.091-1.35-3.725-3.203-4.904-5.56-1.159-2.357-1.739-4.998-1.739-7.926 0-2.927.58-5.569 1.739-7.925 1.179-2.357 2.813-4.21 4.904-5.56 2.091-1.35 4.457-2.024 7.099-2.024 3.934 0 6.833 1.597 8.696 4.79h.256V18.26h8.097v29.423h-8.097Zm12.077-41.283h8.097v23.892h.199l9.494-12.032h9.58l-11.576 14.084 11.861 15.339h-9.295l-10.064-13.115h-.199v13.115h-8.097V6.4Z"/>
  <circle cx="267.313" cy="9.245" r="9.245" fill="#FE9C00"/>
</svg>
