<svg width="68" height="14" viewBox="0 0 68 14" fill="none" xmlns="http://www.w3.org/2000/svg">
<path d="M7.17278 10.9678V13.0379M9.96147 9.9614L11.2697 11.2696M10.968 7.17252H13.0382M9.96147 4.0387L11.2423 2.75787M7.17278 3.03229V0.962158M4.1397 4.13943L2.85888 2.8586M3.03253 7.17252H0.962402M4.03908 9.9614L2.75826 11.2422" stroke="#FFF8E6" stroke-width="1.72511" stroke-linecap="round"/>
<path d="M25.0005 3.34801C27.0174 3.34818 28.6519 4.98342 28.6519 7.00035C28.6517 9.01713 27.0173 10.6515 25.0005 10.6517C22.9836 10.6517 21.3483 9.01724 21.3481 7.00035C21.3481 4.98331 22.9834 3.34801 25.0005 3.34801Z" stroke="#FFF8E6" stroke-width="2.02899" stroke-linejoin="round"/>
<circle cx="43.0002" cy="7.00003" r="4.66667" fill="#FFF8E6"/>
<path d="M65.6668 7.00003H56.3335M61.0002 2.33336V11.6667" stroke="#FFF8E6" stroke-width="2.45614" stroke-linecap="round"/>
</svg>
